<svg width="24" height="24" viewBox="0 0 24 24" fill="none" xmlns="http://www.w3.org/2000/svg">
<path d="M21.9786 21.1761L15.4458 2.57277C15.4342 2.53984 15.4183 2.50828 15.3976 2.47906C15.3266 2.37887 15.2114 2.31934 15.0887 2.31934H8.91115C8.75033 2.31934 8.60713 2.42086 8.55389 2.57254L2.0214 21.176C1.9807 21.2918 1.99874 21.4202 2.06972 21.5204C2.14069 21.6207 2.25593 21.6802 2.37866 21.6802H7.27733C8.20279 21.6802 9.0306 21.0935 9.33713 20.2203L12 12.6371L14.6625 20.2204C14.969 21.0936 15.797 21.6803 16.7226 21.6803H21.6213C21.7441 21.6803 21.8593 21.6208 21.9302 21.5206C22.0013 21.4204 22.0193 21.292 21.9786 21.1761ZM8.62256 19.9694C8.42232 20.5397 7.88174 20.9228 7.27729 20.9228H2.91304L9.17955 3.0768H14.5543L8.62256 19.9694ZM16.7226 20.9229C16.118 20.9229 15.5773 20.5398 15.3772 19.9695L12.4013 11.4941L15.0885 3.84136L21.0869 20.9229H16.7226Z" fill="white"/>
</svg>
