<svg width="64" height="64" viewBox="0 0 64 64" fill="none" xmlns="http://www.w3.org/2000/svg">
<path d="M58.6097 56.4697L41.1889 6.86077C41.1581 6.77296 41.1156 6.68879 41.0605 6.61087C40.8712 6.34369 40.5639 6.18494 40.2366 6.18494H23.7632C23.3344 6.18494 22.9525 6.45567 22.8105 6.86014L5.39056 56.4693C5.28202 56.7783 5.33014 57.1206 5.51941 57.3879C5.70868 57.6552 6.01597 57.8138 6.34326 57.8138H19.4064C21.8743 57.8138 24.0818 56.2493 24.8992 53.9208L32.0001 33.6988L39.1002 53.9211C39.9176 56.2496 42.1254 57.8142 44.5938 57.8142H57.6569C57.9844 57.8142 58.2915 57.6555 58.4808 57.3884C58.6704 57.1212 58.7182 56.7786 58.6097 56.4697ZM22.9937 53.2517C22.4597 54.7725 21.0181 55.7941 19.4063 55.7941H7.76826L24.479 8.20483H38.8116L22.9937 53.2517ZM44.5938 55.7945C42.9815 55.7945 41.5397 54.7729 41.0059 53.252L33.0703 30.6509L40.2362 10.2437L56.2319 55.7945H44.5938Z" fill="#0099FA"/>
</svg>
