<svg width="24" height="24" viewBox="0 0 24 24" fill="none" xmlns="http://www.w3.org/2000/svg">
<path d="M21.9924 10.8893C21.9901 10.2276 21.4608 9.65879 20.7491 9.65879L20.7376 9.65871C20.6879 9.65789 20.6433 9.62215 20.6291 9.5718C20.4333 8.87363 20.1531 8.20242 19.795 7.57277C19.7649 7.51973 19.7715 7.45223 19.8149 7.4093C19.8151 7.40906 19.8154 7.40879 19.8156 7.40855C20.0445 7.18273 20.1708 6.8777 20.1714 6.54973C20.1719 6.21785 20.0383 5.89461 19.8049 5.66277L18.2824 4.15094C18.2824 4.1509 18.2824 4.1509 18.2824 4.1509C17.8024 3.67426 17.0146 3.66074 16.5365 4.15242C16.5295 4.15961 16.5225 4.16652 16.5157 4.17289C16.4836 4.20297 16.4304 4.2066 16.3863 4.18184C15.7507 3.82469 15.0716 3.54625 14.3681 3.3541C14.3174 3.34027 14.2811 3.29578 14.28 3.2459L14.2799 3.23246C14.2754 2.55199 13.7193 2 13.0393 2C13.0378 2 13.0363 2 13.0349 2L10.883 2.00754C10.5525 2.00867 10.2429 2.1391 10.0111 2.3748C9.77942 2.61055 9.65427 2.92242 9.65876 3.2498L9.65872 3.26215C9.65794 3.31195 9.62208 3.35668 9.57157 3.37086C8.86923 3.56789 8.19212 3.85117 7.55903 4.21277C7.51513 4.23777 7.46196 4.23453 7.42962 4.20461C7.42235 4.19793 7.41524 4.19098 7.40848 4.18422C7.18153 3.9541 6.87661 3.82707 6.54981 3.82652C6.54911 3.82652 6.54845 3.82652 6.54774 3.82652C6.2179 3.82652 5.8954 3.96082 5.66274 4.19508L4.15091 5.71754C3.67782 6.19395 3.66255 6.98691 4.15239 7.4634C4.15434 7.46731 4.2297 7.5284 4.17887 7.61902C3.82317 8.25309 3.54571 8.93031 3.35419 9.63184C3.34098 9.68016 3.29634 9.72008 3.23251 9.72008C2.55052 9.72461 1.99762 10.2831 2.00001 10.9651L2.00751 13.1077C2.00989 13.7886 2.56087 14.3411 3.24634 14.3411H3.25083C3.25473 14.3425 3.3443 14.3335 3.37095 14.4284C3.56774 15.1299 3.85055 15.8063 4.21161 16.4389C4.26223 16.5276 4.18618 16.5875 4.18419 16.5914C3.69262 17.0761 3.72423 17.8696 4.19509 18.3372L5.71751 19.849C6.1968 20.3249 6.98454 20.3398 7.46352 19.8474C7.50469 19.8049 7.55173 19.7833 7.61352 19.8179C8.24919 20.1752 8.92833 20.4537 9.63208 20.6458C9.68266 20.6596 9.7188 20.704 9.71993 20.7537C9.72321 20.7703 9.68704 21.2451 10.0832 21.6399C10.3163 21.8722 10.6255 22 10.9544 22H10.9589L13.0983 21.9925C13.7792 21.9901 14.3367 21.4342 14.3411 20.75L14.3412 20.738C14.342 20.688 14.378 20.6431 14.4289 20.6288C15.1308 20.4319 15.8076 20.1488 16.4405 19.7874C16.4847 19.7621 16.5382 19.7655 16.5706 19.7954C17.137 20.3199 17.8696 20.2757 18.3372 19.8048L19.849 18.2823C20.323 17.8051 20.3365 17.0121 19.8476 16.5366L19.8468 16.5358C19.8036 16.4938 19.7946 16.4281 19.8241 16.3755C20.1786 15.7425 20.4546 15.0683 20.6459 14.3677C20.6597 14.3172 20.704 14.2811 20.7546 14.28C20.7677 14.2773 21.2566 14.3134 21.6544 13.9C21.8819 13.6636 22.001 13.3432 21.9999 13.0152L21.9924 10.8893ZM20.7404 13.6943C20.4335 13.7012 20.1622 13.9148 20.0806 14.2134C19.8802 14.9477 19.618 15.5871 19.2265 16.2398C19.0982 16.4536 19.1809 16.6875 19.439 16.9566C19.6845 17.2127 19.6782 17.6229 19.4333 17.8696L17.9215 19.392C17.7106 19.6044 17.4475 19.5882 17.4514 19.5874C17.2077 19.587 17.0849 19.4733 16.9686 19.3655C16.7471 19.1605 16.4181 19.1255 16.15 19.2786C15.5588 19.6163 14.9265 19.8807 14.2706 20.0648C13.9719 20.1486 13.76 20.4219 13.7554 20.7289C13.7482 21.1439 13.4347 21.4054 13.0963 21.4066L10.9568 21.4141C10.6202 21.4122 10.3149 21.167 10.3057 20.7406C10.2987 20.4336 10.0852 20.1621 9.78637 20.0806C9.12891 19.9011 8.49446 19.6409 7.90055 19.3071C7.64223 19.162 7.2995 19.1749 7.04329 19.4391C6.79262 19.6968 6.37852 19.6796 6.13036 19.4332L4.60794 17.9214C4.37516 17.6903 4.32294 17.291 4.61536 16.9888C4.83196 16.7651 4.8752 16.4196 4.72048 16.1484C4.38317 15.5575 4.11891 14.9255 3.93509 14.2702C3.8554 13.9862 3.5952 13.7552 3.24751 13.7552C2.88915 13.7578 2.59466 13.4668 2.59341 13.1056L2.58591 10.963C2.58466 10.6031 2.87641 10.3084 3.23481 10.306C3.23532 10.306 3.23942 10.306 3.23993 10.306C3.55684 10.3043 3.83626 10.0905 3.91938 9.78617C4.09833 9.13078 4.35755 8.49805 4.68989 7.90563C4.83946 7.63895 4.80907 7.28441 4.56087 7.04328C4.30661 6.79598 4.32165 6.37707 4.56665 6.13035L6.07848 4.60789C6.20188 4.48363 6.37286 4.41242 6.5477 4.41242H6.5488C6.7179 4.41273 6.87505 4.47777 6.99153 4.5959C7.00473 4.6093 7.01829 4.62234 7.03188 4.63492C7.25325 4.83965 7.5818 4.87441 7.84954 4.72156C8.44102 4.38375 9.07364 4.1191 9.72977 3.935C10.028 3.85133 10.2397 3.57848 10.2446 3.27047L10.2447 3.24484C10.2423 3.07191 10.3078 2.90875 10.429 2.78539C10.5527 2.65957 10.7254 2.59395 10.9018 2.59332L13.0369 2.58594H13.0475C13.4059 2.58594 13.6924 2.87914 13.6939 3.23754C13.6939 3.24477 13.694 3.25195 13.6942 3.25918C13.7011 3.56629 13.9147 3.83777 14.2137 3.91941C14.8711 4.09891 15.5054 4.35906 16.0992 4.69273C16.3638 4.84141 16.7054 4.81992 16.9568 4.56074C17.2061 4.30437 17.6198 4.31867 17.8696 4.56672V4.56668L19.392 6.07855C19.5152 6.2009 19.5857 6.37234 19.5855 6.54879C19.5852 6.71914 19.5208 6.87641 19.4041 6.99145C19.3506 7.0443 19.3023 7.10156 19.2595 7.16289C19.1315 7.34645 19.1252 7.58922 19.2399 7.78145C19.6135 8.40793 19.8665 9.0225 20.065 9.73004C20.1486 10.0281 20.4214 10.2397 20.7274 10.2446C21.1584 10.2523 21.4054 10.5599 21.4065 10.8914L21.414 13.0398C21.4152 13.3716 21.1691 13.6836 20.7404 13.6943Z" fill="white"/>
<path d="M12 5.96753C8.67383 5.96753 5.96777 8.67355 5.96777 11.9998C5.96777 15.326 8.67383 18.032 12 18.032C15.3262 18.032 18.0322 15.326 18.0322 11.9998C18.0322 8.67355 15.3262 5.96753 12 5.96753ZM12 17.446C8.99691 17.446 6.55371 15.0028 6.55371 11.9998C6.55371 8.99667 8.99691 6.55347 12 6.55347C15.0031 6.55347 17.4463 8.99667 17.4463 11.9998C17.4463 15.0028 15.0031 17.446 12 17.446Z" fill="white"/>
<path d="M15.3624 8.96901C15.1475 8.7894 14.8754 8.70444 14.5965 8.72936C14.3175 8.75444 14.065 8.88659 13.8854 9.10155L10.7649 12.8374L9.69698 11.7386C9.50179 11.5377 9.24007 11.4249 8.95999 11.4209C8.68011 11.4169 8.41507 11.5222 8.21425 11.7174C8.01339 11.9126 7.90058 12.1743 7.89659 12.4544C7.89261 12.7344 7.99788 12.9992 8.19308 13.2001L10.0719 15.1333C10.2681 15.3353 10.5422 15.4511 10.8238 15.4511C10.8368 15.4511 10.8498 15.4508 10.8633 15.4504C11.1596 15.4392 11.4385 15.3022 11.6285 15.0747L15.495 10.4459C15.8656 10.0022 15.8061 9.33963 15.3624 8.96901ZM15.0453 10.0704L11.1788 14.6991C11.095 14.7995 10.9719 14.8599 10.8416 14.8649C10.7105 14.8694 10.5827 14.8184 10.492 14.725L8.61323 12.7917C8.5271 12.7031 8.48066 12.5863 8.48241 12.4628C8.48417 12.3392 8.53394 12.2237 8.62257 12.1376C8.70956 12.0531 8.82374 12.0067 8.94484 12.0067C8.9471 12.0067 8.94937 12.0067 8.95159 12.0068C9.07515 12.0086 9.19062 12.0583 9.27675 12.1469L10.5712 13.4789C10.6291 13.5384 10.7096 13.5697 10.7924 13.5676C10.8753 13.5644 10.953 13.5263 11.0062 13.4626L14.3351 9.47721C14.4144 9.38237 14.5258 9.32405 14.6489 9.31303C14.772 9.30205 14.8919 9.33959 14.9868 9.41873C15.1826 9.58221 15.2088 9.87455 15.0453 10.0704Z" fill="white"/>
<path d="M16.2639 17.1926C15.0669 18.1767 13.5526 18.7187 12 18.7187C8.29527 18.7187 5.28125 15.7048 5.28125 12C5.28125 10.4475 5.82316 8.93331 6.80719 7.73635C6.90992 7.61139 6.89191 7.42674 6.76691 7.32397C6.64191 7.22124 6.45734 7.23928 6.35457 7.36424C5.28457 8.66585 4.69531 10.3122 4.69531 12C4.69531 16.0278 7.97219 19.3047 12 19.3047C13.688 19.3047 15.3345 18.7153 16.6361 17.6452C16.7611 17.5424 16.7791 17.3578 16.6763 17.2328C16.5736 17.1079 16.3889 17.0898 16.2639 17.1926Z" fill="white"/>
<path d="M12 4.69531C10.3117 4.69531 8.66503 5.28488 7.36324 6.35539C7.23828 6.45816 7.22027 6.64277 7.32304 6.76777C7.42578 6.89273 7.61038 6.9107 7.73542 6.80797C8.93261 5.82344 10.4471 5.28125 12 5.28125C15.7048 5.28125 18.7188 8.29527 18.7188 12C18.7188 13.5526 18.1768 15.067 17.1926 16.264C17.0898 16.389 17.1078 16.5736 17.2328 16.6764C17.2873 16.7212 17.3532 16.743 17.4187 16.743C17.5033 16.743 17.5873 16.7066 17.6452 16.6361C18.7153 15.3345 19.3047 13.688 19.3047 12C19.3047 7.97219 16.0278 4.69531 12 4.69531Z" fill="white"/>
</svg>
