<svg width="56" height="24" viewBox="0 0 56 24" fill="none" xmlns="http://www.w3.org/2000/svg">
<path d="M32.1485 12.3928L30.1476 15.3073C30.1209 15.358 30.0676 15.358 30.0142 15.3326L28.6536 14.4963C28.6002 14.471 28.6002 14.3949 28.6536 14.3442L32.0152 12.2914C32.1219 12.2408 32.2019 12.3168 32.1485 12.3928Z" fill="#2F353D"/>
<path d="M30.8146 15.7381L32.2819 16.397C32.3353 16.4224 32.4154 16.3717 32.3887 16.321L32.4687 12.5195C32.4687 12.4435 32.362 12.4182 32.3086 12.4942L30.7612 15.6367C30.7612 15.6621 30.7612 15.7128 30.8146 15.7381Z" fill="#2F353D"/>
<path fill-rule="evenodd" clip-rule="evenodd" d="M30.6545 6.36113C33.0289 6.36113 35.8036 7.24815 37.5111 8.99683C39.2185 10.7455 40.0456 12.8743 40.0189 15.434C40.0189 17.9683 39.1919 19.641 37.4844 21.3896C35.7769 23.1383 33.7493 24 31.3748 24C29.0804 24 26.5192 23.7719 25.2653 22.378V24H19.8494V0H25.2653V8.46461C26.5459 7.0454 28.3334 6.36113 30.6545 6.36113ZM30.6545 20.1985C32.0952 20.1985 33.2424 19.7677 34.1495 18.906C35.0832 18.0443 35.5368 16.8532 35.5902 15.4593C35.5902 14.0148 35.1366 12.849 34.2028 11.9873C33.2957 11.1257 32.1485 10.6948 30.7078 10.6948C29.2672 10.6948 28.0933 11.1257 27.1595 11.9873C26.2524 12.849 25.7989 14.0148 25.7989 15.4593C25.7989 16.169 25.8789 16.8025 26.0923 17.3601C26.3591 18.0697 27.2929 18.2724 27.8532 17.7656L28.7336 16.9799C28.7869 16.9292 28.8403 16.9799 28.8136 17.0306L27.3996 18.8553C27.3196 18.9567 27.3196 19.0834 27.4263 19.1594C27.533 19.2355 27.6931 19.2101 27.7731 19.1088L28.3867 18.2724L30.0675 16.1183C30.0942 16.0676 30.1743 16.1183 30.1476 16.1689L29.0804 18.6526L28.6269 19.6156C28.5735 19.717 28.6269 19.8437 28.7603 19.8944C28.867 19.9197 28.9737 19.8691 29.0271 19.7677L29.9608 17.5882C29.9608 17.5375 30.0409 17.5628 30.0409 17.6135L29.7207 19.1341C29.5873 19.6917 30.0409 20.1985 30.6278 20.1985H30.6545Z" fill="#2F353D"/>
<path d="M50.2638 12.8743C52.745 13.3812 56.0265 14.623 55.9998 18.3485C55.9998 20.1985 55.2795 21.6177 53.8388 22.5554C52.3981 23.4931 50.6373 23.9493 48.503 23.9493C44.7145 23.9493 42.1266 22.5808 40.7393 19.869L45.4348 17.3347C45.9151 18.6779 46.9556 19.3622 48.503 19.3622C49.8102 19.3622 50.4505 19.0074 50.4505 18.2978C50.4505 17.6135 49.0365 17.208 47.3024 16.7772C44.8212 16.1183 41.5663 14.9525 41.5663 11.4551C41.5663 9.6811 42.26 8.31256 43.594 7.29883C44.9546 6.31045 46.6621 5.82893 48.6364 5.82893C51.6244 5.82893 54.1857 7.12144 55.6797 9.50369L51.0642 11.8606C50.4772 10.8722 49.7035 10.34 48.6364 10.34C47.6225 10.34 47.1156 10.6441 47.1156 11.3031C47.1156 12.0633 48.5296 12.4435 50.2638 12.8743Z" fill="#2F353D"/>
<path d="M2.69462 21.3896C0.880426 19.641 0 17.5121 0 14.9525C0 12.3928 0.907106 10.264 2.69462 8.5153C4.53549 6.76662 6.80323 5.90496 9.5512 5.90496C13.0195 5.90496 16.1143 7.65364 17.7151 10.2893L12.9928 12.8997C12.3525 11.6325 11.1786 10.9736 9.49784 10.9736C7.15006 10.9736 5.41591 12.6209 5.41591 14.9525C5.41591 17.284 7.15006 18.9314 9.49784 18.9314C11.2053 18.9314 12.3792 18.2724 12.9928 17.0053L17.7151 19.5649C16.1143 22.2767 13.0462 24 9.5512 24C6.80323 24 4.53549 23.1383 2.69462 21.3896Z" fill="#2F353D"/>
</svg>
