<svg width="24" height="24" viewBox="0 0 24 24" fill="none" xmlns="http://www.w3.org/2000/svg">
<path d="M5.87073 15.0795C5.42286 15.4961 5.06315 15.9869 4.80152 16.5384L4.66332 16.8298L2.41509 19.6678C2.31431 19.795 2.33575 19.9798 2.46298 20.0806C2.51697 20.1234 2.58135 20.1441 2.64526 20.1441C2.73194 20.1441 2.81779 20.1059 2.87582 20.0327L5.14481 17.1686C5.15864 17.1511 5.1704 17.1321 5.17996 17.1121L5.33258 16.7904C5.56216 16.3064 5.8779 15.8755 6.27108 15.5098C6.38988 15.3992 6.39662 15.2133 6.28608 15.0944C6.17555 14.9757 5.98962 14.9688 5.87073 15.0795Z" fill="white"/>
<path d="M21.3815 13.0897C20.9787 12.6144 20.2646 12.5555 19.7895 12.9582L19.6375 13.087C19.602 12.9033 19.5205 12.7259 19.3911 12.5733C18.9885 12.0982 18.2743 12.0392 17.7991 12.4419L17.6643 12.5561C17.6266 12.3782 17.5454 12.207 17.4197 12.0586C17.017 11.5835 16.3029 11.5246 15.8277 11.9272L13.5689 13.8415C13.4529 13.8087 13.3308 13.7907 13.2044 13.7907H9.14586C8.39302 13.7907 7.63986 13.9713 6.96789 14.3129C6.82323 14.3865 6.76555 14.5634 6.83909 14.708C6.91264 14.8527 7.08956 14.9104 7.23423 14.8368C7.82414 14.537 8.48514 14.3785 9.14586 14.3785H13.2044C13.6193 14.3785 13.9569 14.7161 13.9569 15.131C13.9569 15.3352 13.8765 15.5263 13.7305 15.6691C13.5847 15.8118 13.3931 15.8867 13.188 15.8833C13.1859 15.8833 13.1837 15.8832 13.1815 15.8832H10.5621C10.3997 15.8832 10.2682 16.0148 10.2682 16.1771C10.2682 16.3395 10.3997 16.471 10.5621 16.471H13.1784C13.1875 16.4712 13.1965 16.4713 13.2056 16.4713C13.5576 16.4713 13.8889 16.3363 14.1415 16.0893C14.1785 16.053 14.2129 16.0149 14.2452 15.9754H16.7283C16.9928 15.9754 17.2495 15.8812 17.4513 15.7102L20.1695 13.4066C20.3974 13.2135 20.7399 13.2418 20.9331 13.4696C21.1262 13.6976 21.0979 14.0401 20.8701 14.2333L16.5792 17.8697C16.1787 18.2091 15.6916 18.4216 15.1704 18.4843L14.641 18.548C14.4798 18.5674 14.3649 18.7137 14.3843 18.8749C14.4022 19.0242 14.5291 19.1337 14.6757 19.1337C14.6875 19.1337 14.6993 19.133 14.7112 19.1316L15.2406 19.0679C15.8764 18.9914 16.4706 18.7322 16.9592 18.3181L21.2501 14.6817C21.7252 14.279 21.7842 13.5648 21.3815 13.0897ZM16.2077 12.3756C16.4356 12.1824 16.7782 12.2108 16.9714 12.4386C17.1494 12.6487 17.1425 12.9546 16.957 13.1555L14.5428 15.2015C14.544 15.1781 14.5447 15.1546 14.5447 15.131C14.5447 14.7434 14.3791 14.3939 14.1152 14.149L16.2077 12.3756ZM15.2323 15.3876L18.1791 12.8902C18.4071 12.6971 18.7496 12.7254 18.9427 12.9533C19.1359 13.1812 19.1076 13.5238 18.8797 13.7169L17.0714 15.2618C16.9757 15.3429 16.8538 15.3876 16.7283 15.3876H15.2323Z" fill="white"/>
<path d="M13.3926 18.6981L10.379 19.0607C10.3047 19.0697 10.2366 19.1066 10.1886 19.164L8.22263 21.5176C8.1186 21.6422 8.13521 21.8275 8.25978 21.9315C8.31471 21.9775 8.38152 21.9999 8.44802 21.9999C8.53211 21.9999 8.61557 21.964 8.67372 21.8944L10.565 19.6303L13.4628 19.2817C13.6239 19.2623 13.7389 19.116 13.7195 18.9548C13.7001 18.7937 13.5532 18.6789 13.3926 18.6981Z" fill="white"/>
<path d="M11.0591 10.4088C11.0591 10.4088 9.34162 7.73522 9.33915 7.73177C9.04845 7.31944 8.85539 6.83818 8.78082 6.34008C8.75684 6.17954 8.60704 6.06877 8.4467 6.09294C8.28616 6.11692 8.17555 6.26657 8.19957 6.42706C8.28726 7.01318 8.51386 7.57943 8.85507 8.06511L10.5179 10.6538V11.0824C10.5179 11.2065 10.5617 11.3206 10.6344 11.4101V12.4203C10.6344 12.893 11.0191 13.2777 11.4918 13.2777H12.5286C13.0014 13.2777 13.386 12.8931 13.386 12.4203V11.4101C13.4588 11.3206 13.5025 11.2065 13.5025 11.0824V10.6538L15.1654 8.06511C15.6222 7.41481 15.8637 6.64986 15.8637 5.85255C15.8637 4.57864 15.235 3.3885 14.1819 2.66885C13.1061 1.93371 11.7585 1.79708 10.4848 2.29389C9.56207 2.6538 8.82424 3.38674 8.46049 4.30482C8.36081 4.55642 8.28456 4.81452 8.23385 5.07196C8.20247 5.23121 8.30615 5.38575 8.46535 5.41713C8.62495 5.44864 8.77914 5.34484 8.81052 5.18564C8.85433 4.96319 8.92043 4.73968 9.00695 4.52131C9.31075 3.75456 9.92727 3.14227 10.6984 2.84149C11.7885 2.4163 12.9374 2.53033 13.8503 3.15414C14.7429 3.7642 15.2759 4.77295 15.2759 5.85259C15.2759 6.53016 15.0702 7.17995 14.6812 7.73177C14.6788 7.73522 12.9613 10.4088 12.9613 10.4088C12.9309 10.4562 12.9147 10.5113 12.9147 10.5676V11.0158H12.8429L13.0103 8.17487H13.2905C13.7412 8.17487 14.1079 7.80818 14.1079 7.35741V7.32493C14.1079 6.87415 13.7412 6.50747 13.2905 6.50747C12.8583 6.50747 12.4998 6.84543 12.4744 7.27689L12.4562 7.58715H11.567L11.5487 7.27689C11.5233 6.84543 11.1648 6.50747 10.7326 6.50747C10.2818 6.50747 9.91516 6.87415 9.91516 7.32493V7.35741C9.91516 7.80818 10.2818 8.17487 10.7326 8.17487H11.0128L11.1802 11.0158H11.1056V10.5676C11.1056 10.5113 11.0895 10.4562 11.0591 10.4088ZM13.0612 7.31141C13.0683 7.19013 13.169 7.09515 13.2905 7.09515C13.4171 7.09515 13.5202 7.19821 13.5202 7.32485V7.35733C13.5202 7.48397 13.4171 7.58703 13.2905 7.58703H13.0449L13.0612 7.31141ZM10.7326 7.58707C10.606 7.58707 10.5029 7.48401 10.5029 7.35737V7.32489C10.5029 7.19825 10.606 7.09519 10.7326 7.09519C10.8541 7.09519 10.9548 7.19017 10.962 7.31145L10.9782 7.58711H10.7326V7.58707ZM12.7982 12.4203C12.7982 12.569 12.6772 12.69 12.5285 12.69H11.4918C11.3431 12.69 11.2221 12.569 11.2221 12.4203V11.6035H12.7982V12.4203ZM11.6016 8.17483H12.4215L12.2541 11.0157H11.769L11.6016 8.17483Z" fill="white"/>
<path d="M17.1001 6.17205C17.1001 6.33439 17.2316 6.46593 17.394 6.46593H18.0867C18.2491 6.46593 18.3806 6.33439 18.3806 6.17205C18.3806 6.00971 18.2491 5.87817 18.0867 5.87817H17.394C17.2316 5.87817 17.1001 6.00975 17.1001 6.17205Z" fill="white"/>
<path d="M16.9288 4.61853C16.9627 4.61853 16.9972 4.61261 17.0309 4.60011L17.6804 4.35932C17.8326 4.30294 17.9102 4.13382 17.8538 3.98163C17.7974 3.82944 17.6283 3.75178 17.4761 3.8082L16.8266 4.04899C16.6744 4.10537 16.5968 4.27449 16.6532 4.42668C16.6971 4.54521 16.8094 4.61853 16.9288 4.61853Z" fill="white"/>
<path d="M16.8266 8.29532L17.4762 8.53607C17.5098 8.54853 17.5443 8.55449 17.5782 8.55449C17.6976 8.55449 17.8099 8.48117 17.8538 8.36264C17.9102 8.21045 17.8326 8.04137 17.6804 7.98495L17.0308 7.7442C16.8786 7.68785 16.7095 7.76548 16.6531 7.91763C16.5968 8.06982 16.6744 8.2389 16.8266 8.29532Z" fill="white"/>
<path d="M5.93353 6.46593H6.6263C6.78864 6.46593 6.92018 6.33439 6.92018 6.17205C6.92018 6.00971 6.78864 5.87817 6.6263 5.87817H5.93353C5.77119 5.87817 5.63965 6.00971 5.63965 6.17205C5.63965 6.33439 5.77119 6.46593 5.93353 6.46593Z" fill="white"/>
<path d="M6.33929 4.35928L6.98885 4.60006C7.0225 4.61252 7.05699 4.61848 7.09092 4.61848C7.21031 4.61848 7.32258 4.54517 7.3665 4.42663C7.42289 4.27444 7.34526 4.10536 7.19307 4.04894L6.54352 3.80815C6.39141 3.75185 6.22229 3.82939 6.16583 3.98158C6.10948 4.13377 6.18714 4.30285 6.33929 4.35928Z" fill="white"/>
<path d="M7.36653 7.91766C7.31014 7.76547 7.14106 7.68781 6.98883 7.74424L6.33928 7.98498C6.18709 8.04137 6.10947 8.21049 6.16585 8.36268C6.20978 8.48117 6.322 8.55452 6.44143 8.55452C6.47533 8.55452 6.50985 8.54861 6.54351 8.53611L7.19306 8.29536C7.34529 8.23893 7.42296 8.06986 7.36653 7.91766Z" fill="white"/>
</svg>
