<svg width="64" height="64" viewBox="0 0 64 64" fill="none" xmlns="http://www.w3.org/2000/svg">
<path d="M15.6545 40.2117C14.4601 41.3226 13.5009 42.6316 12.8032 44.1023L12.4347 44.8794L6.43944 52.4471C6.17069 52.7864 6.22784 53.2793 6.56712 53.548C6.71111 53.6621 6.88279 53.7174 7.05322 53.7174C7.28435 53.7174 7.51329 53.6156 7.66804 53.4203L13.7187 45.7826C13.7556 45.7361 13.7869 45.6854 13.8124 45.6319L14.2194 44.774C14.8316 43.4834 15.6736 42.3344 16.7221 41.3592C17.0389 41.0644 17.0568 40.5686 16.7621 40.2516C16.4673 39.9349 15.9715 39.9167 15.6545 40.2117Z" fill="#0099FA"/>
<path d="M57.0168 34.9059C55.9428 33.6386 54.0383 33.4816 52.7714 34.5555L52.3663 34.8988C52.2714 34.4089 52.0542 33.9359 51.7091 33.5289C50.6354 32.262 48.7308 32.1048 47.4638 33.1785L47.1043 33.4831C47.0037 33.0087 46.7873 32.5521 46.4521 32.1566C45.3783 30.8895 43.4739 30.7324 42.2068 31.8061L36.1832 36.9109C35.8739 36.8233 35.5482 36.7755 35.2112 36.7755H24.3885C22.3809 36.7755 20.3725 37.257 18.5806 38.1679C18.1948 38.364 18.041 38.8358 18.2371 39.2216C18.4332 39.6074 18.905 39.7613 19.2908 39.5651C20.8639 38.7655 22.6265 38.3428 24.3885 38.3428H35.2113C36.3178 38.3428 37.218 39.243 37.218 40.3495C37.218 40.894 37.0035 41.4036 36.6143 41.7843C36.2253 42.1649 35.7143 42.3648 35.1675 42.3557C35.1618 42.3556 35.156 42.3555 35.1502 42.3555H28.1651C27.7322 42.3555 27.3814 42.7063 27.3814 43.1392C27.3814 43.5721 27.7322 43.9228 28.1651 43.9228H35.142C35.1662 43.9234 35.1903 43.9236 35.2144 43.9236C36.1531 43.9236 37.0367 43.5636 37.7102 42.9049C37.809 42.8082 37.9007 42.7066 37.9866 42.6011H44.6084C45.3136 42.6011 45.9983 42.3501 46.5364 41.8939L53.7847 35.7511C54.3926 35.2361 55.3059 35.3115 55.8211 35.9192C56.3361 36.527 56.2607 37.4405 55.653 37.9556L44.2107 47.6528C43.1427 48.5577 41.8437 49.1245 40.4538 49.2917L39.042 49.4616C38.6124 49.5133 38.3059 49.9035 38.3576 50.3334C38.4055 50.7313 38.7437 51.0234 39.1347 51.0234C39.1661 51.0234 39.1976 51.0214 39.2294 51.0177L40.6411 50.8478C42.3365 50.6439 43.9212 49.9526 45.2239 48.8484L56.6664 39.1513C57.9333 38.0775 58.0906 36.173 57.0168 34.9059ZM43.2201 33.0018C43.8277 32.4866 44.7414 32.5622 45.2565 33.1698C45.7312 33.73 45.7127 34.5457 45.2182 35.0815L38.7803 40.5374C38.7835 40.4751 38.7853 40.4124 38.7853 40.3495C38.7853 39.3158 38.3438 38.3839 37.6401 37.7307L43.2201 33.0018ZM40.6189 41.0338L48.4771 34.3742C49.0851 33.859 49.9985 33.9346 50.5135 34.5422C51.0286 35.15 50.9532 36.0636 50.3454 36.5786L45.5232 40.6983C45.2679 40.9146 44.943 41.0338 44.6084 41.0338H40.6189Z" fill="#0099FA"/>
<path d="M35.7124 49.8618L27.6763 50.8286C27.4781 50.8525 27.2964 50.951 27.1685 51.1042L21.9259 57.3803C21.6485 57.7126 21.6928 58.2068 22.0249 58.4842C22.1714 58.6066 22.3496 58.6664 22.5269 58.6664C22.7511 58.6664 22.9737 58.5707 23.1288 58.3852L28.1721 52.3475L35.8996 51.418C36.3293 51.3663 36.6359 50.9761 36.5842 50.5463C36.5324 50.1167 36.1407 49.8105 35.7124 49.8618Z" fill="#0099FA"/>
<path d="M29.4895 27.7568C29.4895 27.7568 24.9097 20.6273 24.9031 20.6181C24.1279 19.5185 23.6131 18.2352 23.4142 16.9069C23.3503 16.4788 22.9508 16.1834 22.5232 16.2478C22.0951 16.3118 21.8002 16.7108 21.8642 17.1388C22.0981 18.7018 22.7023 20.2118 23.6122 21.507L28.0465 28.4103V29.5532C28.0465 29.8841 28.1632 30.1882 28.3572 30.427V33.1207C28.3572 34.3814 29.3828 35.4072 30.6436 35.4072H33.4083C34.669 35.4072 35.6948 34.3815 35.6948 33.1207V30.427C35.8887 30.1882 36.0055 29.8841 36.0055 29.5532V28.4103L40.4397 21.507C41.658 19.7728 42.302 17.733 42.302 15.6068C42.302 12.2097 40.6254 9.036 37.8171 7.11692C34.9483 5.15657 31.3547 4.79221 27.9581 6.11705C25.4976 7.0768 23.53 9.0313 22.56 11.4795C22.2942 12.1504 22.0908 12.8387 21.9556 13.5252C21.8719 13.9499 22.1484 14.362 22.573 14.4457C22.9986 14.5297 23.4097 14.2529 23.4934 13.8284C23.6102 13.2352 23.7865 12.6392 24.0172 12.0568C24.8274 10.0122 26.4714 8.37938 28.5278 7.57731C31.4348 6.44348 34.4984 6.74755 36.9328 8.41104C39.3131 10.0379 40.7344 12.7279 40.7344 15.6069C40.7344 17.4138 40.186 19.1465 39.1485 20.6181C39.142 20.6273 34.5621 27.7568 34.5621 27.7568C34.481 27.8832 34.4379 28.0301 34.4379 28.1804V29.3754H34.2465L34.6928 21.7996H35.4399C36.642 21.7996 37.6198 20.8218 37.6198 19.6198V19.5331C37.6198 18.3311 36.642 17.3533 35.4399 17.3533C34.2875 17.3533 33.3315 18.2545 33.2638 19.405L33.2151 20.2324H30.8439L30.7952 19.405C30.7275 18.2545 29.7715 17.3533 28.619 17.3533C27.4169 17.3533 26.4391 18.3311 26.4391 19.5331V19.6198C26.4391 20.8218 27.4169 21.7996 28.619 21.7996H29.3662L29.8125 29.3754H29.6137V28.1804C29.6138 28.0301 29.5706 27.8832 29.4895 27.7568ZM34.8286 19.4971C34.8476 19.1737 35.1161 18.9204 35.4401 18.9204C35.7778 18.9204 36.0526 19.1952 36.0526 19.5329V19.6196C36.0526 19.9573 35.7778 20.2321 35.4401 20.2321H34.7852L34.8286 19.4971ZM28.619 20.2322C28.2813 20.2322 28.0065 19.9574 28.0065 19.6197V19.533C28.0065 19.1953 28.2813 18.9205 28.619 18.9205C28.9429 18.9205 29.2116 19.1738 29.2306 19.4972L29.274 20.2323H28.619V20.2322ZM34.1272 33.1208C34.1272 33.5173 33.8047 33.8399 33.4081 33.8399H30.6434C30.2469 33.8399 29.9243 33.5173 29.9243 33.1208V30.9427H34.1272V33.1208ZM30.9363 21.7995H33.1228L32.6764 29.3753H31.3828L30.9363 21.7995Z" fill="#0099FA"/>
<path d="M45.5991 16.4591C45.5991 16.892 45.9499 17.2428 46.3828 17.2428H48.2302C48.6631 17.2428 49.0139 16.892 49.0139 16.4591C49.0139 16.0262 48.6631 15.6754 48.2302 15.6754H46.3828C45.9499 15.6754 45.5991 16.0263 45.5991 16.4591Z" fill="#0099FA"/>
<path d="M45.1429 12.3159C45.2333 12.3159 45.3254 12.3001 45.4151 12.2668L47.1473 11.6247C47.5531 11.4743 47.7601 11.0234 47.6097 10.6175C47.4593 10.2117 47.0084 10.0046 46.6026 10.155L44.8704 10.7971C44.4646 10.9475 44.2576 11.3985 44.4079 11.8043C44.5252 12.1204 44.8245 12.3159 45.1429 12.3159Z" fill="#0099FA"/>
<path d="M44.8705 22.1212L46.6026 22.7632C46.6924 22.7964 46.7844 22.8123 46.8748 22.8123C47.1932 22.8123 47.4926 22.6168 47.6097 22.3007C47.76 21.8949 47.553 21.444 47.1472 21.2935L45.4151 20.6515C45.0092 20.5013 44.5582 20.7083 44.4079 21.114C44.2576 21.5198 44.4646 21.9707 44.8705 22.1212Z" fill="#0099FA"/>
<path d="M15.8223 17.2428H17.6696C18.1026 17.2428 18.4533 16.892 18.4533 16.4591C18.4533 16.0262 18.1026 15.6754 17.6696 15.6754H15.8223C15.3893 15.6754 15.0386 16.0262 15.0386 16.4591C15.0386 16.892 15.3893 17.2428 15.8223 17.2428Z" fill="#0099FA"/>
<path d="M16.9046 11.6246L18.6368 12.2667C18.7265 12.2999 18.8185 12.3158 18.909 12.3158C19.2273 12.3158 19.5267 12.1203 19.6438 11.8042C19.7942 11.3984 19.5872 10.9475 19.1814 10.797L17.4492 10.1549C17.0436 10.0048 16.5926 10.2115 16.442 10.6174C16.2918 11.0232 16.4989 11.4741 16.9046 11.6246Z" fill="#0099FA"/>
<path d="M19.6439 21.114C19.4936 20.7081 19.0427 20.501 18.6367 20.6515L16.9046 21.2935C16.4987 21.4439 16.2917 21.8948 16.4421 22.3007C16.5592 22.6167 16.8585 22.8123 17.177 22.8123C17.2674 22.8123 17.3594 22.7965 17.4492 22.7632L19.1813 22.1212C19.5873 21.9707 19.7944 21.5198 19.6439 21.114Z" fill="#0099FA"/>
</svg>
