<svg width="64" height="64" viewBox="0 0 64 64" fill="none" xmlns="http://www.w3.org/2000/svg">
<path d="M39.4879 29.8707L43.7917 25.7291C44.1025 25.43 44.597 25.4394 44.8963 25.7502C45.1954 26.0611 45.186 26.5556 44.875 26.8549L39.8025 31.7364C39.421 32.1038 38.7938 31.9914 38.5606 31.5199L37.1517 28.6724C36.9603 28.2857 37.1187 27.8171 37.5054 27.6257C37.8922 27.4344 38.3607 27.5927 38.5521 27.9795L39.4879 29.8707Z" fill="#0099FA"/>
<path fill-rule="evenodd" clip-rule="evenodd" d="M32.8643 28.7331C32.8643 24.1783 36.5387 20.5048 41.0925 20.5048C45.6474 20.5048 49.3209 24.1791 49.321 28.7331C49.321 33.288 45.6466 36.9614 41.0927 36.9614C36.538 36.9613 32.8643 33.2872 32.8643 28.7331ZM34.4268 28.7331C34.4268 32.4241 37.4024 35.3989 41.0926 35.3989C44.7839 35.3989 47.7586 32.4234 47.7585 28.7331C47.7583 25.0419 44.783 22.0673 41.0926 22.0673C37.4014 22.0673 34.4268 25.043 34.4268 28.7331Z" fill="#0099FA"/>
<path d="M16.9243 20.8755H26.5949C27.0263 20.8755 27.3761 20.5257 27.3761 20.0943C27.3761 19.6628 27.0263 19.313 26.5949 19.313H16.9243C16.4928 19.313 16.143 19.6628 16.143 20.0943C16.143 20.5257 16.4928 20.8755 16.9243 20.8755Z" fill="#0099FA"/>
<path d="M26.5949 25.3047H16.9243C16.4928 25.3047 16.143 24.9549 16.143 24.5235C16.143 24.092 16.4928 23.7422 16.9243 23.7422H26.5949C27.0263 23.7422 27.3761 24.092 27.3761 24.5235C27.3761 24.9549 27.0263 25.3047 26.5949 25.3047Z" fill="#0099FA"/>
<path d="M16.9243 29.7339H26.5949C27.0263 29.7339 27.3761 29.3841 27.3761 28.9527C27.3761 28.5212 27.0263 28.1714 26.5949 28.1714H16.9243C16.4928 28.1714 16.143 28.5212 16.143 28.9527C16.143 29.3841 16.4928 29.7339 16.9243 29.7339Z" fill="#0099FA"/>
<path d="M26.5949 34.4579H16.9243C16.4928 34.4579 16.143 34.1081 16.143 33.6766C16.143 33.2452 16.4928 32.8954 16.9243 32.8954H26.5949C27.0263 32.8954 27.3761 33.2452 27.3761 33.6766C27.3761 34.1081 27.0263 34.4579 26.5949 34.4579Z" fill="#0099FA"/>
<path fill-rule="evenodd" clip-rule="evenodd" d="M40.2952 56.3267H32.0537L31.1142 54.2046C32.8929 52.5705 34.01 50.2272 34.01 47.6272C34.01 46.3632 33.7445 45.1606 33.269 44.0698H40.7974C41.2289 44.0698 41.5786 43.72 41.5786 43.2885C41.5786 42.8571 41.2289 42.5073 40.7974 42.5073H32.3907C30.7733 40.2036 28.0987 38.6937 25.0764 38.6937C20.1505 38.6937 16.143 42.7012 16.143 47.6272C16.143 52.5531 20.1505 56.5607 25.0764 56.5607C26.8259 56.5607 28.4581 56.0532 29.8376 55.1807L30.8308 57.4243C30.9559 57.7071 31.236 57.8893 31.5452 57.8893H40.2952C40.7267 57.8893 41.0764 57.5396 41.0764 57.1081C41.0764 56.6766 40.7267 56.3267 40.2952 56.3267ZM24.2954 47.6272V54.9571C20.597 54.5655 17.7057 51.4276 17.7057 47.6272C17.7057 43.5628 21.0123 40.2562 25.0766 40.2562C27.1533 40.2562 29.0308 41.1208 30.3718 42.5073H29.1528C28.7213 42.5073 28.3715 42.8571 28.3715 43.2885C28.3715 43.72 28.7213 44.0698 29.1528 44.0698H31.5289C31.9937 44.9093 32.3009 45.8478 32.4065 46.8459H25.0766C24.6451 46.8459 24.2954 47.1957 24.2954 47.6272ZM25.8579 54.9571V48.4084H32.4065C32.2325 50.0523 31.5149 51.5359 30.4385 52.6779L29.867 51.3871C29.6924 50.9925 29.2308 50.8142 28.8364 50.9889C28.4418 51.1635 28.2636 51.625 28.4383 52.0196L29.1973 53.734C28.2236 54.3931 27.0856 54.8271 25.8579 54.9571Z" fill="#0099FA"/>
<path d="M40.7974 46.8462H45.7812C46.2128 46.8462 46.5625 47.196 46.5625 47.6275C46.5625 48.0589 46.2128 48.4087 45.7812 48.4087H40.7974C40.3658 48.4087 40.0161 48.0589 40.0161 47.6275C40.0161 47.196 40.3658 46.8462 40.7974 46.8462Z" fill="#0099FA"/>
<path d="M45.7812 50.6848H40.7974C40.3658 50.6848 40.0161 51.0346 40.0161 51.466C40.0161 51.8975 40.3658 52.2473 40.7974 52.2473H45.7812C46.2128 52.2473 46.5625 51.8975 46.5625 51.466C46.5625 51.0346 46.2128 50.6848 45.7812 50.6848Z" fill="#0099FA"/>
<path fill-rule="evenodd" clip-rule="evenodd" d="M56.0393 39.1688L57.6597 40.7892C58.9064 42.0361 58.9061 44.0534 57.6598 45.2998C56.4125 46.5465 54.3956 46.5462 53.1492 45.2998L50.6107 42.7614V59.2188C50.6107 60.5686 49.5126 61.6667 48.1628 61.6667H13.8688C12.519 61.6667 11.4208 60.5686 11.4208 59.2188V57.0935H9.44792C8.09813 57.0935 7 55.9953 7 54.6456V10.7813C7 9.4315 8.09813 8.33337 9.44792 8.33337H18.3224C18.7539 8.33337 19.1036 8.68317 19.1036 9.11462C19.1036 9.54608 18.7539 9.89587 18.3224 9.89587H9.44792C8.95969 9.89587 8.5625 10.2931 8.5625 10.7813V54.6455C8.5625 55.1337 8.95969 55.5309 9.44792 55.5309H11.4208V15.3545C11.4208 14.0047 12.519 12.9066 13.8688 12.9066H44.6274V10.7813C44.6274 10.2931 44.2302 9.89587 43.742 9.89587H21.9682C21.5368 9.89587 21.187 9.54608 21.187 9.11462C21.187 8.68317 21.5368 8.33337 21.9682 8.33337H43.7421C45.0919 8.33337 46.19 9.4315 46.19 10.7813V12.9066H48.1629C49.5127 12.9066 50.6108 14.0047 50.6108 15.3545V22.3376C51.8764 24.2126 52.5568 26.4202 52.5568 28.7326C52.5568 30.7 52.0638 32.5914 51.1375 34.2668L53.4614 36.5907C53.7665 36.8957 53.7665 37.3904 53.4614 37.6955C53.1563 38.0006 52.6617 38.0006 52.3565 37.6955L50.2684 35.6074C49.613 36.4784 48.8337 37.2567 47.9666 37.9072L54.2541 44.1948C54.8902 44.8309 55.9189 44.8307 56.5549 44.1948C57.1907 43.5593 57.1907 42.5301 56.5549 41.894L54.9345 40.2736C54.6293 39.9686 54.6293 39.4739 54.9344 39.1688C55.2395 38.8637 55.7341 38.8636 56.0393 39.1688ZM31.1958 28.7326C31.1958 31.4591 32.3078 34.1284 34.4389 36.0645C40.8304 41.8801 50.9942 37.1872 50.9942 28.7326C50.9942 23.2541 46.5608 18.8358 41.0926 18.8358C35.6183 18.8358 31.1958 23.258 31.1958 28.7326ZM48.1628 60.1042C48.6511 60.1042 49.0482 59.707 49.0482 59.2188L49.0483 41.1988L46.6242 38.7746C44.5019 39.9424 42.1056 40.37 39.8587 40.129C37.0135 39.8236 34.4369 38.4671 32.5804 36.4118C25.9422 29.0623 31.1999 17.2687 41.0926 17.2687C44.1543 17.2687 46.9549 18.4586 49.0482 20.4784V15.3545C49.0482 14.8663 48.6511 14.4691 48.1628 14.4691H13.8688C13.3805 14.4691 12.9833 14.8663 12.9833 15.3545V59.2188C12.9833 59.707 13.3805 60.1042 13.8688 60.1042H48.1628Z" fill="#0099FA"/>
</svg>
