<svg width="24" height="24" viewBox="0 0 24 24" fill="none" xmlns="http://www.w3.org/2000/svg">
<path d="M14.5091 10.0765L16.1231 8.52338C16.2396 8.41123 16.425 8.41475 16.5373 8.53131C16.6495 8.64791 16.6459 8.83334 16.5293 8.94557L14.6271 10.7761C14.484 10.9139 14.2488 10.8717 14.1614 10.6949L13.6331 9.62713C13.5613 9.48213 13.6207 9.30639 13.7657 9.23463C13.9107 9.16288 14.0865 9.22225 14.1582 9.36729L14.5091 10.0765Z" fill="white"/>
<path fill-rule="evenodd" clip-rule="evenodd" d="M12.0253 9.64989C12.0253 7.94185 13.4032 6.56427 15.1109 6.56427C16.819 6.56427 18.1965 7.94216 18.1965 9.64989C18.1965 11.358 16.8186 12.7355 15.1109 12.7355C13.4029 12.7355 12.0253 11.3577 12.0253 9.64989ZM12.6112 9.64989C12.6112 11.034 13.7271 12.1496 15.1109 12.1496C16.4951 12.1496 17.6106 11.0338 17.6106 9.64989C17.6105 8.26571 16.4948 7.15021 15.1109 7.15021C13.7267 7.15021 12.6112 8.26611 12.6112 9.64989Z" fill="white"/>
<path d="M6.04777 6.70331H9.67425C9.83605 6.70331 9.96722 6.57214 9.96722 6.41034C9.96722 6.24854 9.83605 6.11737 9.67425 6.11737H6.04777C5.88597 6.11737 5.7548 6.24854 5.7548 6.41034C5.7548 6.57214 5.88597 6.70331 6.04777 6.70331Z" fill="white"/>
<path d="M9.67425 8.36426H6.04777C5.88597 8.36426 5.7548 8.23309 5.7548 8.07129C5.7548 7.90949 5.88597 7.77832 6.04777 7.77832H9.67425C9.83605 7.77832 9.96722 7.90949 9.96722 8.07129C9.96722 8.23309 9.83605 8.36426 9.67425 8.36426Z" fill="white"/>
<path d="M6.04777 10.0252H9.67425C9.83605 10.0252 9.96722 9.89404 9.96722 9.73224C9.96722 9.57044 9.83605 9.43927 9.67425 9.43927H6.04777C5.88597 9.43927 5.7548 9.57044 5.7548 9.73224C5.7548 9.89404 5.88597 10.0252 6.04777 10.0252Z" fill="white"/>
<path d="M9.67425 11.7967H6.04777C5.88597 11.7967 5.7548 11.6655 5.7548 11.5037C5.7548 11.3419 5.88597 11.2108 6.04777 11.2108H9.67425C9.83605 11.2108 9.96722 11.3419 9.96722 11.5037C9.96722 11.6655 9.83605 11.7967 9.67425 11.7967Z" fill="white"/>
<path fill-rule="evenodd" clip-rule="evenodd" d="M14.8119 19.9975H11.7213L11.369 19.2017C12.036 18.5889 12.4549 17.7102 12.4549 16.7352C12.4549 16.2612 12.3554 15.8102 12.1771 15.4011H15.0002C15.162 15.4011 15.2931 15.27 15.2931 15.1082C15.2931 14.9464 15.162 14.8152 15.0002 14.8152H11.8477C11.2412 13.9513 10.2382 13.3851 9.10483 13.3851C7.2576 13.3851 5.75479 14.8879 5.75479 16.7352C5.75479 18.5824 7.2576 20.0852 9.10483 20.0852C9.76088 20.0852 10.373 19.8949 10.8903 19.5677L11.2627 20.4091C11.3096 20.5151 11.4147 20.5835 11.5306 20.5835H14.8119C14.9737 20.5835 15.1048 20.4523 15.1048 20.2905C15.1048 20.1287 14.9737 19.9975 14.8119 19.9975ZM8.81194 16.7352V19.4839C7.42506 19.337 6.34081 18.1603 6.34081 16.7352C6.34081 15.211 7.58077 13.9711 9.10491 13.9711C9.88366 13.9711 10.5877 14.2953 11.0906 14.8152H10.6335C10.4717 14.8152 10.3405 14.9464 10.3405 15.1082C10.3405 15.27 10.4717 15.4011 10.6335 15.4011H11.5245C11.6988 15.716 11.814 16.0679 11.8536 16.4422H9.10491C8.94307 16.4422 8.81194 16.5734 8.81194 16.7352ZM9.39788 19.4839V17.0281H11.8536C11.7883 17.6446 11.5192 18.201 11.1156 18.6292L10.9013 18.1451C10.8358 17.9972 10.6627 17.9303 10.5148 17.9958C10.3669 18.0613 10.3 18.2344 10.3655 18.3823L10.6501 19.0252C10.285 19.2724 9.85827 19.4351 9.39788 19.4839Z" fill="white"/>
<path d="M15.0002 16.4423H16.8691C17.031 16.4423 17.1621 16.5735 17.1621 16.7353C17.1621 16.8971 17.031 17.0283 16.8691 17.0283H15.0002C14.8384 17.0283 14.7072 16.8971 14.7072 16.7353C14.7072 16.5735 14.8384 16.4423 15.0002 16.4423Z" fill="white"/>
<path d="M16.8691 17.8818H15.0002C14.8384 17.8818 14.7072 18.0129 14.7072 18.1747C14.7072 18.3365 14.8384 18.4677 15.0002 18.4677H16.8691C17.031 18.4677 17.1621 18.3365 17.1621 18.1747C17.1621 18.0129 17.031 17.8818 16.8691 17.8818Z" fill="white"/>
<path fill-rule="evenodd" clip-rule="evenodd" d="M20.7159 13.5633L21.3236 14.1709C21.7911 14.6385 21.7909 15.395 21.3236 15.8624C20.8559 16.3299 20.0995 16.3298 19.6321 15.8624L18.6802 14.9105V21.082C18.6802 21.5882 18.2684 22 17.7622 22H4.90195C4.39578 22 3.98398 21.5882 3.98398 21.082V20.285H3.24414C2.73797 20.285 2.32617 19.8732 2.32617 19.3671V2.91797C2.32617 2.4118 2.73797 2 3.24414 2H6.57207C6.73387 2 6.86504 2.13117 6.86504 2.29297C6.86504 2.45477 6.73387 2.58594 6.57207 2.58594H3.24414C3.06105 2.58594 2.91211 2.73488 2.91211 2.91797V19.367C2.91211 19.5501 3.06105 19.6991 3.24414 19.6991H3.98398V4.63293C3.98398 4.12676 4.39578 3.71496 4.90195 3.71496H16.4364V2.91797C16.4364 2.73488 16.2875 2.58594 16.1044 2.58594H7.93926C7.77746 2.58594 7.64629 2.45477 7.64629 2.29297C7.64629 2.13117 7.77746 2 7.93926 2H16.1045C16.6106 2 17.0224 2.4118 17.0224 2.91797V3.71496H17.7623C18.2684 3.71496 18.6802 4.12676 18.6802 4.63293V7.2516C19.1548 7.95473 19.41 8.78258 19.41 9.64973C19.41 10.3875 19.2251 11.0968 18.8777 11.725L19.7492 12.5965C19.8636 12.7109 19.8636 12.8964 19.7492 13.0108C19.6348 13.1252 19.4493 13.1252 19.3348 13.0108L18.5518 12.2278C18.3061 12.5544 18.0138 12.8462 17.6886 13.0902L20.0464 15.448C20.285 15.6866 20.6707 15.6865 20.9093 15.448C21.1477 15.2097 21.1477 14.8238 20.9093 14.5852L20.3016 13.9776C20.1872 13.8632 20.1872 13.6777 20.3016 13.5633C20.416 13.4489 20.6014 13.4488 20.7159 13.5633ZM11.3996 9.64973C11.3996 10.6721 11.8166 11.6731 12.6157 12.3992C15.0126 14.58 18.824 12.8202 18.824 9.64973C18.824 7.59527 17.1615 5.9384 15.1109 5.9384C13.0581 5.9384 11.3996 7.59672 11.3996 9.64973ZM17.7622 21.4141C17.9453 21.4141 18.0943 21.2651 18.0943 21.082L18.0943 14.3245L17.1852 13.4155C16.3894 13.8534 15.4908 14.0138 14.6482 13.9234C13.5813 13.8088 12.615 13.3002 11.9188 12.5294C9.42949 9.77336 11.4011 5.35074 15.1109 5.35074C16.259 5.35074 17.3093 5.79695 18.0943 6.55438V4.63293C18.0943 4.44984 17.9453 4.3009 17.7622 4.3009H4.90195C4.71887 4.3009 4.56992 4.44984 4.56992 4.63293V21.082C4.56992 21.2651 4.71887 21.4141 4.90195 21.4141H17.7622Z" fill="white"/>
</svg>
