<svg width="64" height="64" viewBox="0 0 64 64" fill="none" xmlns="http://www.w3.org/2000/svg">
<path fill-rule="evenodd" clip-rule="evenodd" d="M39.8988 15.7111V20.517C39.8988 22.2302 41.2927 23.6241 43.0058 23.6241H48.0127C49.726 23.6241 51.1197 22.2302 51.1197 20.517V15.1071C51.1198 13.3938 49.726 12 48.0127 12H38.7241C38.3313 12 37.976 12.2325 37.8188 12.5924C37.6615 12.9523 37.7323 13.371 37.9992 13.6592L39.8988 15.7111ZM48.0127 13.174C49.0786 13.174 49.9457 14.0412 49.9457 15.1071V20.517C49.9457 21.5829 49.0786 22.4501 48.0127 22.4501H43.0058C41.94 22.4501 41.0728 21.5829 41.0728 20.517V15.481C41.0728 15.3332 41.017 15.1907 40.9165 15.0822L39.1497 13.174H48.0127Z" fill="#0099FA"/>
<path fill-rule="evenodd" clip-rule="evenodd" d="M36.4541 35.1791C36.4541 34.8549 36.7169 34.5921 37.0411 34.5921C37.3653 34.5921 37.6281 34.8549 37.628 35.1791V44.0506C37.628 45.3195 36.5957 46.3519 35.3267 46.3519C34.0935 46.3519 33.0841 45.377 33.028 44.1576L26.5449 38.31L24.8083 38.0708L22.8008 41.3313V48.6188C22.8008 49.6979 21.923 50.5757 20.8439 50.5757H18.6863C17.6073 50.5757 16.7294 49.6979 16.7294 48.6188V42.214C16.7294 41.8898 16.9921 41.627 17.3164 41.627C17.6406 41.627 17.9034 41.8898 17.9034 42.214V48.6187C17.9034 49.0504 18.2545 49.4016 18.6863 49.4016H20.844C21.2757 49.4016 21.6269 49.0504 21.6269 48.6187V41.1649C21.6269 41.0562 21.657 40.9497 21.714 40.8572L23.5375 37.8955L17.9034 37.1192V39.7123C17.9034 40.0365 17.6406 40.2993 17.3164 40.2993C16.9921 40.2993 16.7294 40.0365 16.7294 39.7123V36.9574L14.6095 36.6653C13.1266 36.4611 12.0083 35.1781 12.0083 33.6812V30.3192C12.0083 28.8223 13.1266 27.5394 14.6095 27.3351L26.545 25.6904L33.0427 19.8298C33.1798 18.6909 34.1515 17.8051 35.3268 17.8051C36.5958 17.8051 37.6281 18.8375 37.6281 20.1064V28.8215C37.6281 29.1456 37.3654 29.4084 37.0411 29.4084C36.7169 29.4084 36.4541 29.1456 36.4541 28.8215V20.1064C36.4541 19.4848 35.9484 18.979 35.3268 18.979C34.7052 18.979 34.1994 19.4848 34.1994 20.1064V44.0507C34.1994 44.6723 34.7052 45.178 35.3268 45.178C35.9484 45.178 36.4541 44.6723 36.4541 44.0507V35.1791ZM16.8506 28.2113V35.7892L18.597 36.0297V27.9706L16.8506 28.2113ZM13.1823 30.3192V33.6812C13.1823 34.5947 13.8648 35.3777 14.7697 35.5024L15.6766 35.6274V28.3731L14.7697 28.4981C13.8648 28.6227 13.1823 29.4057 13.1823 30.3192ZM24.5995 36.8569L26.8841 37.1717C27.0008 37.1878 27.1098 37.2385 27.1972 37.3175L30.3598 40.17C30.3658 38.6762 30.368 35.5079 30.3566 28.9517C30.356 28.6275 30.6183 28.3642 30.9426 28.3637H30.9436C31.2674 28.3637 31.53 28.6258 31.5306 28.9497C31.5367 32.389 31.5393 35.1876 31.5385 37.2676C31.5381 38.5728 31.5363 39.589 31.5331 40.2877C31.5315 40.6626 31.5293 40.961 31.5267 41.166L31.5259 41.2218L33.0254 42.5743V21.4264L31.5177 22.7864C31.5191 23.3331 31.5223 24.694 31.5259 26.4478C31.5266 26.772 31.2643 27.0353 30.9401 27.036H30.9389C30.6152 27.036 30.3526 26.7739 30.3519 26.4502C30.3498 25.4154 30.3478 24.5178 30.3462 23.843L27.1972 26.6832C27.1099 26.762 27.0008 26.8128 26.8842 26.8288L19.7711 27.8089V36.1916L24.5958 36.8564L24.5995 36.8569Z" fill="#0099FA"/>
<path d="M42.134 25.4199H48.885C50.5983 25.4199 51.992 26.8137 51.992 28.527V35.751C51.992 37.4643 50.5983 38.8581 48.885 38.8581H46.6409C46.3167 38.8581 46.0539 38.5953 46.0539 38.2711C46.0539 37.9469 46.3167 37.6841 46.6409 37.6841H48.885C49.9509 37.6841 50.818 36.8169 50.818 35.751V28.527C50.818 27.4611 49.9509 26.5939 48.885 26.5939H42.134C41.0681 26.5939 40.201 27.4611 40.201 28.527V30.0047C40.201 30.2096 40.094 30.3998 39.9189 30.5063L37.4624 32.0001L39.9189 33.4938C40.0941 33.6003 40.201 33.7904 40.201 33.9954V35.751C40.201 36.8169 41.0681 37.684 42.134 37.684H44.1393C44.4636 37.684 44.7263 37.9469 44.7263 38.271C44.7263 38.5952 44.4636 38.858 44.1393 38.858H42.134C40.4208 38.858 39.027 37.4642 39.027 35.751V34.3254L36.7298 32.9285C36.4029 32.7297 36.2078 32.3826 36.2078 32.0001C36.2078 31.6175 36.4029 31.2705 36.7298 31.0716L39.027 29.6747V28.527C39.027 26.8138 40.4207 25.4199 42.134 25.4199Z" fill="#0099FA"/>
<path fill-rule="evenodd" clip-rule="evenodd" d="M43.0059 40.376H48.0128C49.726 40.376 51.1199 41.7697 51.1198 43.4831V48.8929C51.1198 50.6062 49.726 52 48.0128 52H38.724C38.3314 52 37.976 51.7675 37.8187 51.4076C37.6616 51.0478 37.7323 50.629 37.999 50.3409L39.8989 48.289V43.4831C39.8989 41.7698 41.2926 40.376 43.0059 40.376ZM48.0129 50.826C49.0788 50.826 49.9459 49.9588 49.9459 48.8929L49.9458 43.483C49.9458 42.4171 49.0787 41.5499 48.0128 41.5499H43.0059C41.94 41.5499 41.0729 42.4171 41.0729 43.483V48.5189C41.0729 48.6668 41.0171 48.8092 40.9166 48.9178L39.1498 50.826H48.0129Z" fill="#0099FA"/>
</svg>
