<svg width="24" height="24" viewBox="0 0 24 24" fill="none" xmlns="http://www.w3.org/2000/svg">
<path fill-rule="evenodd" clip-rule="evenodd" d="M15.9497 3.85553V6.25849C15.9497 7.11511 16.6466 7.81203 17.5032 7.81203H20.0066C20.8632 7.81203 21.5601 7.11511 21.5601 6.25849V3.55354C21.5602 2.69692 20.8632 2 20.0066 2H15.3623C15.1659 2 14.9882 2.11626 14.9096 2.2962C14.831 2.47613 14.8664 2.68549 14.9998 2.82962L15.9497 3.85553ZM20.0066 2.58699C20.5396 2.58699 20.9731 3.02059 20.9731 3.55354V6.25849C20.9731 6.79144 20.5396 7.22503 20.0066 7.22503H17.5032C16.9702 7.22503 16.5367 6.79144 16.5367 6.25849V3.74052C16.5367 3.66659 16.5088 3.59537 16.4585 3.5411L15.5751 2.58699H20.0066Z" fill="white"/>
<path fill-rule="evenodd" clip-rule="evenodd" d="M14.2273 13.5895C14.2273 13.4274 14.3587 13.296 14.5208 13.296C14.6829 13.296 14.8143 13.4274 14.8143 13.5895V18.0253C14.8143 18.6598 14.2981 19.176 13.6636 19.176C13.047 19.176 12.5423 18.6885 12.5143 18.0788L9.27272 15.155L8.4044 15.0354L7.40064 16.6657V20.3094C7.40064 20.8489 6.96172 21.2879 6.42219 21.2879H5.34342C4.80389 21.2879 4.36493 20.8489 4.36493 20.3094V17.107C4.36493 16.9449 4.4963 16.8135 4.65843 16.8135C4.82056 16.8135 4.95193 16.9449 4.95193 17.107V20.3093C4.95193 20.5252 5.12752 20.7008 5.34342 20.7008H6.42223C6.63809 20.7008 6.81368 20.5252 6.81368 20.3093V16.5825C6.81368 16.5281 6.82875 16.4748 6.85724 16.4286L7.769 14.9478L4.95193 14.5596V15.8562C4.95193 16.0182 4.82056 16.1497 4.65843 16.1497C4.4963 16.1497 4.36493 16.0182 4.36493 15.8562V14.4787L3.30498 14.3327C2.56353 14.2305 2.00439 13.5891 2.00439 12.8406V11.1596C2.00439 10.4112 2.56353 9.76969 3.30498 9.66755L9.27276 8.84521L12.5216 5.9149C12.5901 5.34543 13.076 4.90253 13.6636 4.90253C14.2981 4.90253 14.8143 5.41873 14.8143 6.05319V10.4107C14.8143 10.5728 14.6829 10.7042 14.5208 10.7042C14.3587 10.7042 14.2273 10.5728 14.2273 10.4107V6.05319C14.2273 5.7424 13.9744 5.48952 13.6636 5.48952C13.3528 5.48952 13.1 5.7424 13.1 6.05319V18.0253C13.1 18.3361 13.3528 18.589 13.6636 18.589C13.9744 18.589 14.2273 18.3361 14.2273 18.0253V13.5895ZM4.42555 10.1056V13.8946L5.29877 14.0149V9.98531L4.42555 10.1056ZM2.59139 11.1596V12.8406C2.59139 13.2974 2.93263 13.6889 3.38508 13.7512L3.83856 13.8137V10.1865L3.38508 10.249C2.93263 10.3114 2.59139 10.7029 2.59139 11.1596ZM8.29999 14.4285L9.44228 14.5859C9.50063 14.5939 9.55514 14.6192 9.59885 14.6588L11.1801 16.085C11.1832 15.3381 11.1842 13.754 11.1785 10.4758C11.1783 10.3138 11.3094 10.1821 11.4715 10.1818H11.472C11.6339 10.1818 11.7653 10.3129 11.7655 10.4748C11.7686 12.1945 11.7699 13.5938 11.7695 14.6338C11.7693 15.2864 11.7684 15.7945 11.7668 16.1439C11.766 16.3313 11.7649 16.4805 11.7636 16.583L11.7632 16.6109L12.513 17.2871V6.71321L11.7591 7.39318C11.7598 7.66657 11.7614 8.34701 11.7632 9.2239C11.7635 9.38599 11.6324 9.51767 11.4703 9.51799H11.4697C11.3078 9.51799 11.1765 9.38697 11.1762 9.22508C11.1751 8.7077 11.1742 8.25892 11.1734 7.92148L9.59885 9.34161C9.55518 9.38098 9.50063 9.40638 9.44232 9.4144L5.8858 9.90446V14.0958L8.29815 14.4282L8.29999 14.4285Z" fill="white"/>
<path d="M17.0672 8.70996H20.4427C21.2994 8.70996 21.9963 9.40684 21.9963 10.2635V13.8755C21.9963 14.7321 21.2994 15.4291 20.4427 15.4291H19.3207C19.1586 15.4291 19.0272 15.2976 19.0272 15.1356C19.0272 14.9735 19.1586 14.8421 19.3207 14.8421H20.4427C20.9757 14.8421 21.4093 14.4085 21.4093 13.8755V10.2635C21.4093 9.73055 20.9757 9.29695 20.4427 9.29695H17.0672C16.5343 9.29695 16.1007 9.73055 16.1007 10.2635V11.0024C16.1007 11.1048 16.0472 11.1999 15.9597 11.2531L14.7315 12L15.9597 12.7469C16.0473 12.8001 16.1007 12.8952 16.1007 12.9977V13.8755C16.1007 14.4084 16.5343 14.842 17.0672 14.842H18.0699C18.232 14.842 18.3634 14.9734 18.3634 15.1355C18.3634 15.2976 18.232 15.429 18.0699 15.429H17.0672C16.2107 15.429 15.5137 14.7321 15.5137 13.8755V13.1627L14.3651 12.4643C14.2017 12.3649 14.1041 12.1913 14.1041 12C14.1041 11.8087 14.2017 11.6352 14.3651 11.5358L15.5137 10.8373V10.2635C15.5137 9.40688 16.2106 8.70996 17.0672 8.70996Z" fill="white"/>
<path fill-rule="evenodd" clip-rule="evenodd" d="M17.5032 16.188H20.0066C20.8633 16.188 21.5602 16.8849 21.5601 17.7415V20.4465C21.5601 21.3031 20.8633 22 20.0066 22H15.3623C15.1659 22 14.9883 21.8837 14.9096 21.7038C14.831 21.5239 14.8664 21.3145 14.9998 21.1704L15.9497 20.1445V17.7415C15.9497 16.8849 16.6466 16.188 17.5032 16.188ZM20.0067 21.413C20.5396 21.413 20.9732 20.9794 20.9732 20.4464L20.9731 17.7415C20.9731 17.2085 20.5396 16.7749 20.0066 16.7749H17.5032C16.9703 16.7749 16.5367 17.2085 16.5367 17.7415V20.2595C16.5367 20.3334 16.5088 20.4046 16.4585 20.4589L15.5751 21.413H20.0067Z" fill="white"/>
</svg>
