<svg width="64" height="64" viewBox="0 0 64 64" fill="none" xmlns="http://www.w3.org/2000/svg">
<path d="M31.6667 5C20.4016 5 5 13.5144 5 31.6667C5 49.357 19.8136 58.3333 31.6667 58.3333C52.0026 58.3333 58.3333 40.5171 58.3333 31.6667C58.3333 18.6063 48.3386 5 31.6667 5ZM25.4829 7.50919C22.7008 9.88189 20.3911 13.8084 18.9003 18.6798C16.9685 17.5354 15.1942 16.1181 13.6194 14.4698C16.874 11.0577 20.9895 8.66404 25.4829 7.50919ZM12.4751 15.7507C14.2388 17.5879 16.2441 19.1522 18.4278 20.3911C17.6089 23.5722 17.126 27.0997 17.063 30.8058H6.74278C6.93176 25.273 8.94751 19.9921 12.4751 15.7507ZM12.4751 47.5827C8.93701 43.3412 6.93176 38.0604 6.74278 32.5276H17.063C17.126 36.2441 17.6089 39.7612 18.4278 42.9423C16.2546 44.1916 14.2493 45.7454 12.4751 47.5827ZM13.6194 48.874C15.1942 47.2257 16.9685 45.8084 18.9003 44.664C20.3911 49.5249 22.7008 53.4619 25.4829 55.8346C20.9895 54.6693 16.874 52.2756 13.6194 48.874ZM30.8058 56.5486C26.3333 55.9816 22.4803 50.9842 20.4016 43.8241C23.6142 42.1968 27.1627 41.2835 30.8058 41.147V56.5486ZM30.8058 39.4357C27.0052 39.5617 23.3097 40.4961 19.9606 42.1339C19.2572 39.1942 18.8373 35.9501 18.7743 32.5276H30.8058V39.4357ZM30.8058 30.8058H18.7743C18.8373 27.3832 19.2572 24.1391 19.9606 21.1995C23.3202 22.8373 27.0157 23.7717 30.8058 23.8976V30.8058ZM30.8058 22.1864C27.1522 22.0604 23.6142 21.1365 20.4016 19.5092C22.4803 12.3386 26.3333 7.35171 30.8058 6.78478V22.1864ZM50.8583 15.7507C54.3858 19.9921 56.4016 25.273 56.5905 30.8058H46.2808C46.2178 27.0892 45.7349 23.5722 44.916 20.3911C47.0892 19.1417 49.0945 17.5879 50.8583 15.7507ZM49.7139 14.4593C48.1391 16.1076 46.3648 17.5249 44.4331 18.6693C42.9423 13.8084 40.6325 9.88189 37.8504 7.49869C42.3438 8.66404 46.4593 11.0577 49.7139 14.4593ZM32.5276 6.78478C37 7.35171 40.853 12.3491 42.9318 19.5092C39.7192 21.1365 36.1811 22.0499 32.5276 22.1864V6.78478ZM32.5276 23.8976C36.3281 23.7717 40.0236 22.8373 43.3727 21.1995C44.0761 24.1391 44.4961 27.3832 44.5591 30.8058H32.5276V23.8976ZM32.5276 32.5276H44.5591C44.4961 35.9501 44.0761 39.1942 43.3727 42.1339C40.0236 40.4856 36.3281 39.5512 32.5276 39.4357V32.5276ZM32.5276 56.5486V41.147C36.1811 41.273 39.7192 42.1968 42.9318 43.8241C40.853 50.9948 37 55.9816 32.5276 56.5486ZM37.8504 55.8241C40.6325 53.4514 42.9423 49.5249 44.4331 44.6535C46.3648 45.7979 48.1391 47.2152 49.7139 48.8635C46.4593 52.2756 42.3438 54.6693 37.8504 55.8241ZM50.8583 47.5827C49.0945 45.7454 47.0892 44.1916 44.916 42.9423C45.7349 39.7612 46.2178 36.2336 46.2808 32.5276H56.5905C56.4016 38.0604 54.3858 43.3412 50.8583 47.5827Z" fill="#0099FA"/>
</svg>
